<?xml version="1.0" standalone="no"?>
<!DOCTYPE svg PUBLIC "-//W3C//DTD SVG 20010904//EN"
 "http://www.w3.org/TR/2001/REC-SVG-20010904/DTD/svg10.dtd">
<svg version="1.0" xmlns="http://www.w3.org/2000/svg"
 width="2000.000000pt" height="2000.000000pt" viewBox="0 0 2000.000000 2000.000000"
 preserveAspectRatio="xMidYMid meet">

<g transform="translate(0.000000,2000.000000) scale(0.100000,-0.100000)"
fill="#000000" stroke="none">
<path d="M11483 19230 c-116 -17 -327 -99 -465 -181 -37 -22 -120 -80 -183
-130 -248 -193 -455 -262 -1045 -344 -556 -78 -814 -138 -1149 -270 -150 -58
-492 -222 -531 -255 -25 -20 -25 -20 30 1 30 11 98 40 150 64 241 110 504 161
1060 205 500 39 642 61 846 130 65 22 121 40 122 40 2 0 -31 -28 -75 -63 -425
-341 -756 -509 -1148 -582 -455 -86 -604 -147 -770 -315 -33 -33 -68 -60 -78
-60 -10 0 -35 -9 -56 -20 -82 -41 -297 -81 -491 -89 -172 -8 -128 -18 105 -26
94 -3 216 -8 272 -11 l102 -6 -24 -47 c-15 -30 -20 -52 -15 -61 5 -8 6 -18 3
-23 -3 -5 4 -3 16 5 12 7 24 20 26 29 9 28 103 109 118 103 8 -3 37 3 64 14
26 11 95 27 152 37 121 20 170 34 386 109 105 37 189 59 245 66 116 15 372 84
505 137 217 87 485 243 710 415 32 25 31 22 -35 -77 -75 -112 -165 -273 -245
-438 l-74 -154 -160 -167 c-177 -185 -263 -293 -310 -388 -39 -78 -73 -199
-61 -213 11 -14 -113 -115 -207 -169 -207 -118 -847 -434 -1133 -558 -458
-200 -808 -421 -1018 -643 -81 -86 -182 -220 -182 -243 0 -4 -11 -36 -24 -70
-14 -34 -23 -62 -22 -62 11 0 55 83 50 92 -4 6 -3 8 3 5 6 -4 42 33 81 81 170
213 393 384 677 518 64 30 118 54 121 54 3 0 -26 -21 -65 -48 -308 -209 -555
-506 -616 -739 -14 -54 -14 -88 0 -44 3 12 10 21 15 21 4 0 23 26 40 58 52 92
138 211 209 291 138 156 390 349 596 456 100 52 104 57 -69 -94 -229 -200
-428 -461 -592 -776 -216 -413 -391 -862 -410 -1048 -12 -120 35 -103 55 20 6
40 18 94 27 120 22 65 65 154 59 122 -2 -14 -7 -88 -11 -165 -18 -377 76 -672
240 -756 64 -33 199 -55 286 -48 41 4 64 8 50 8 -45 4 -126 48 -158 88 -77 93
-169 317 -207 504 -14 69 -17 114 -12 241 10 239 37 350 137 554 127 261 260
421 515 622 138 109 245 172 559 329 l289 145 -168 -178 c-390 -414 -643 -768
-779 -1087 -96 -225 -131 -440 -103 -633 10 -64 27 -135 41 -167 58 -132 205
-319 295 -377 14 -8 21 -20 18 -26 -17 -27 -685 -460 -816 -530 -36 -19 -77
-45 -91 -59 -23 -23 -25 -31 -24 -117 1 -194 93 -391 227 -488 l38 -28 -120
-81 c-102 -68 -124 -79 -139 -69 -27 17 -79 -13 -100 -57 -12 -27 -32 -44 -73
-65 -103 -52 -372 -170 -594 -261 -121 -49 -230 -96 -243 -104 -57 -37 -147
-240 -232 -524 -21 -69 -40 -145 -44 -170 -6 -44 -6 -45 8 -15 7 17 21 64 31
105 39 169 189 545 231 582 10 9 64 33 119 53 109 41 398 165 624 269 80 36
146 66 147 66 1 0 4 -19 7 -42 22 -158 29 -198 48 -279 12 -50 17 -94 13 -99
-5 -4 -31 -19 -59 -34 -47 -24 -55 -25 -145 -18 -131 11 -197 0 -310 -53 -159
-74 -299 -84 -355 -25 -28 29 -28 30 -6 30 28 0 374 176 506 258 55 34 96 62
91 62 -5 0 -66 -31 -135 -69 -167 -91 -465 -241 -479 -241 -7 0 -12 -9 -12
-19 0 -18 21 -40 64 -66 14 -9 8 -21 -45 -95 -33 -47 -88 -130 -122 -184 -81
-132 -130 -192 -183 -226 -26 -16 -39 -30 -32 -33 22 -8 53 9 99 56 48 47 70
80 218 322 l93 150 53 0 54 0 0 -130 c0 -71 5 -152 11 -180 24 -111 150 -367
192 -394 19 -12 23 -11 35 5 28 38 33 86 17 149 -8 33 -21 87 -29 120 -8 33
-21 80 -30 105 -17 47 -22 101 -10 120 4 7 51 -31 124 -102 126 -123 178 -162
229 -173 24 -5 33 -3 38 9 11 29 -6 66 -63 133 -31 36 -78 95 -105 130 -43 58
-48 69 -48 117 0 29 7 76 16 105 8 29 14 57 12 63 -8 22 -52 -98 -52 -137 1
-65 15 -140 23 -126 7 10 9 10 13 -1 3 -7 41 -60 85 -118 88 -116 105 -144 96
-154 -18 -18 -52 4 -155 100 -62 58 -134 122 -159 141 l-46 35 31 135 c27 122
32 136 55 146 15 6 92 11 181 11 l156 1 49 32 50 33 9 -26 c10 -32 5 -38 -104
-104 -46 -28 -97 -62 -113 -76 -26 -23 -28 -30 -22 -67 8 -48 29 -92 85 -178
41 -64 48 -97 30 -145 -14 -36 -6 -42 15 -10 29 43 23 85 -19 145 -49 69 -96
168 -96 202 0 14 8 33 18 41 23 21 223 140 228 136 1 -2 12 -26 24 -53 12 -28
28 -57 36 -66 13 -14 12 -21 -11 -60 -28 -51 -34 -129 -12 -182 63 -149 253
-186 325 -62 19 34 22 52 20 112 -3 61 -8 78 -33 115 -17 24 -51 56 -75 73
l-45 30 0 80 c-1 44 -4 103 -8 131 l-7 51 192 150 c299 232 387 294 407 284
22 -12 227 -49 334 -60 235 -26 611 66 803 197 l60 41 18 168 c18 177 55 394
80 478 21 68 107 197 270 405 76 96 140 177 143 180 3 3 -3 -13 -12 -35 -130
-305 -176 -710 -106 -935 12 -36 21 -68 21 -71 0 -4 -33 -31 -72 -61 -389
-293 -694 -595 -824 -815 -87 -147 -242 -332 -463 -554 -298 -297 -423 -391
-806 -604 -302 -168 -398 -234 -462 -320 -29 -38 -55 -81 -58 -96 -4 -17 -25
-41 -58 -66 -76 -56 -184 -187 -309 -373 -127 -186 -202 -279 -326 -398 -48
-46 -76 -79 -63 -72 40 20 16 -5 -87 -90 -137 -115 -270 -208 -642 -447 -577
-371 -821 -549 -1118 -816 -101 -91 -224 -221 -290 -307 -28 -37 -125 -214
-165 -300 -63 -139 -102 -282 -92 -332 6 -28 9 -25 44 45 150 298 529 610 941
772 343 136 733 244 1280 356 678 138 895 207 1298 409 229 115 331 155 498
199 275 71 658 113 862 95 l104 -9 -112 -185 c-61 -102 -113 -191 -114 -197
-4 -21 -425 -659 -520 -788 -48 -66 -116 -162 -149 -213 -56 -85 -67 -96 -122
-122 -122 -58 -156 -102 -235 -302 -41 -103 -140 -300 -165 -328 -7 -8 -25
-35 -39 -60 l-25 -44 -16 38 c-9 22 -23 105 -31 185 -8 80 -21 165 -30 188
-27 75 -92 101 -169 69 -31 -13 -36 -22 -70 -128 -44 -136 -99 -358 -119 -486
-27 -169 -30 -276 -11 -419 l18 -131 -113 -269 c-62 -147 -145 -347 -185 -443
-40 -96 -93 -220 -117 -275 -75 -164 -110 -273 -112 -345 -3 -79 -25 -125
-125 -260 -123 -167 -160 -316 -161 -662 -1 -230 -17 -517 -36 -653 -17 -122
-13 -191 17 -270 17 -47 80 -144 65 -102 -3 11 8 4 27 -16 52 -55 140 -105
249 -142 137 -45 225 -58 377 -53 110 4 135 8 193 32 77 32 146 99 188 182 22
45 24 59 22 169 -1 66 -11 194 -22 285 -11 91 -27 233 -36 315 -8 83 -20 167
-26 187 -14 49 -4 327 17 463 22 141 53 283 81 378 14 45 27 96 29 112 11 78
147 376 295 645 227 414 264 469 638 935 131 164 273 325 281 320 9 -5 130
129 301 335 57 69 150 177 205 240 147 167 300 352 314 377 6 12 11 33 11 47
0 22 -5 26 -29 26 -17 0 -33 -5 -36 -10 -9 -14 -92 -56 -137 -68 l-38 -10 39
46 c21 26 55 78 75 116 43 79 100 156 201 270 38 44 79 94 90 111 11 17 99
130 195 250 97 121 197 248 224 282 l48 62 66 8 c37 4 195 8 352 7 321 0 379
-6 750 -79 350 -69 463 -86 623 -92 l148 -6 -53 -54 c-29 -30 -116 -109 -192
-176 -77 -67 -236 -206 -354 -310 -223 -194 -310 -263 -525 -412 -141 -98
-222 -165 -274 -228 -19 -23 -40 -49 -48 -59 -7 -9 -10 -20 -7 -24 4 -4 2 -4
-4 -1 -11 6 -324 -151 -784 -395 -113 -59 -212 -108 -220 -108 -21 -1 -128
-59 -110 -60 12 0 11 -4 -4 -15 -17 -13 -19 -26 -18 -92 2 -74 28 -279 38
-294 2 -4 22 -81 45 -171 75 -302 174 -578 281 -778 46 -85 156 -259 190 -301
39 -47 253 -85 333 -59 126 42 175 184 161 470 -4 80 -10 165 -14 190 -3 25
-6 128 -6 230 1 152 4 203 22 286 23 106 58 219 83 266 8 15 27 53 44 84 88
168 504 433 1015 649 361 152 837 298 1230 379 124 25 287 59 363 75 l138 29
-7 -147 c-5 -119 -4 -162 10 -231 25 -121 66 -221 137 -330 170 -262 233 -373
290 -517 64 -161 109 -421 109 -628 0 -112 0 -113 23 -111 58 7 209 119 312
232 200 219 356 534 535 1074 151 456 239 868 281 1320 17 174 17 637 0 805
-60 613 -196 1101 -366 1308 l-41 51 75 57 c95 71 217 196 263 269 50 79 108
208 115 256 7 54 4 56 -173 89 -239 44 -316 64 -426 109 -123 50 -210 100
-385 223 -120 84 -129 93 -191 186 -101 151 -352 440 -583 670 -171 169 -209
212 -209 235 0 15 -9 72 -20 128 -10 56 -24 175 -30 265 -6 90 -13 170 -15
177 -3 6 -16 12 -30 12 -25 0 -25 1 -25 84 0 70 -4 92 -25 133 -18 34 -27 71
-32 130 -6 79 -4 87 26 151 58 128 63 239 13 296 -14 15 -16 35 -14 104 2 74
7 96 41 171 63 141 66 156 42 187 -42 54 -16 234 41 282 18 15 35 26 39 25 4
-2 18 21 30 50 46 105 166 334 211 403 99 150 142 290 142 461 l1 112 23 -52
c13 -29 35 -95 48 -147 24 -91 30 -147 54 -506 17 -261 64 -450 129 -519 16
-16 55 -59 87 -94 139 -150 340 -256 524 -276 50 -5 75 -3 107 10 l42 17 -3
86 c-1 48 -11 134 -21 192 -32 180 -27 362 18 620 49 284 61 416 53 575 -5
101 -33 342 -49 418 -1 5 27 19 63 31 77 25 91 46 91 139 0 94 -64 348 -137
546 -80 215 -371 804 -496 1003 -108 172 -163 245 -83 110 136 -228 320 -578
407 -777 22 -49 43 -92 48 -95 21 -13 184 -466 225 -625 18 -73 20 -225 3
-247 -12 -15 -247 -88 -282 -88 -8 0 -18 -5 -21 -10 -7 -11 50 -6 119 12 21 5
40 8 42 5 2 -2 13 -84 25 -183 32 -272 24 -450 -35 -804 -31 -185 -46 -304
-46 -365 0 -91 20 -272 39 -355 14 -59 14 -147 0 -156 -16 -10 -64 41 -124
131 -135 204 -186 370 -206 680 -9 130 -9 180 0 212 10 37 65 124 156 251 30
42 25 56 -28 72 -79 23 -82 35 -36 136 36 79 79 272 79 355 0 70 -10 84 -128
173 -86 65 -172 160 -264 291 -50 71 -118 194 -110 199 4 2 21 7 37 10 17 4
40 15 53 24 l23 18 -16 77 c-21 103 -75 277 -144 466 -56 152 -150 365 -158
357 -2 -2 14 -46 36 -97 70 -167 267 -756 256 -767 -9 -10 -47 13 -106 63 -35
30 -71 55 -80 55 -9 0 -36 -15 -60 -33 -71 -53 -110 -74 -176 -92 l-62 -17
-208 51 c-279 68 -538 92 -593 54 -37 -25 -40 -34 -24 -65 15 -29 15 -29 -13
-22 -15 4 -80 26 -143 50 -163 60 -199 68 -293 61 l-82 -6 -62 64 c-65 66 -75
85 -45 85 30 1 201 94 253 139 69 60 123 143 189 297 77 176 95 202 294 430
37 44 73 89 79 101 9 21 15 22 69 16 l60 -6 -46 66 c-49 72 -61 111 -61 197 1
57 14 174 20 168 2 -2 9 -41 15 -88 20 -151 63 -294 104 -345 14 -18 14 -16 0
25 -13 38 -15 78 -9 260 4 148 3 224 -5 244 -18 47 -1 44 47 -9 25 -28 61 -66
80 -86 18 -21 57 -48 86 -62 93 -44 227 -208 316 -384 30 -60 41 -94 21 -63
-9 13 -11 13 -19 0 -7 -10 -6 -20 2 -30 7 -8 19 -33 26 -55 7 -22 28 -73 47
-112 29 -64 36 -73 59 -73 56 0 240 231 280 350 15 44 14 49 -9 111 -67 178
-104 234 -148 227 -20 -3 -31 11 -85 111 -34 62 -70 123 -81 135 -11 11 -38
49 -60 82 -49 73 -209 270 -243 299 -15 13 -11 5 11 -24 212 -271 305 -395
331 -441 133 -236 131 -231 124 -269 -8 -48 -124 -236 -173 -279 l-37 -33 -9
23 c-42 107 -127 238 -214 330 -36 37 -61 68 -56 68 5 0 -23 18 -62 38 -51 27
-97 64 -161 130 -98 100 -163 138 -307 182 -42 13 -76 26 -76 30 0 7 134 80
148 80 6 0 17 -28 25 -62 14 -62 14 -60 12 112 -3 193 -13 249 -67 360 -19 38
-54 87 -88 121 -54 54 -58 60 -64 119 -4 34 -5 64 -2 67 11 12 112 -55 152
-101 49 -56 109 -171 119 -228 l7 -37 -37 10 c-20 6 -39 8 -42 6 -2 -3 69 -28
159 -57 90 -29 174 -56 187 -61 13 -6 26 -8 28 -5 9 8 -74 45 -147 65 -40 11
-74 22 -74 23 -1 2 -9 41 -18 87 -47 233 -225 444 -446 527 -37 14 -74 32 -83
40 -34 31 -124 56 -214 62 -86 5 -92 7 -125 39 -44 42 -100 70 -169 83 -59 11
-82 11 -158 0z m-339 -176 c4 -15 9 -24 12 -21 8 8 41 -26 37 -38 -2 -7 20 -9
62 -7 36 2 65 0 65 -5 0 -15 -41 -49 -80 -67 -51 -24 -161 -109 -188 -146 -22
-29 -18 -27 33 14 53 44 143 96 164 96 12 0 6 -53 -10 -92 -8 -19 -10 -61 -7
-120 l6 -92 -65 -71 c-36 -38 -95 -110 -131 -158 -75 -100 -63 -103 -92 26 -8
32 -24 69 -37 83 -55 60 -57 54 89 196 138 134 150 160 18 41 -174 -157 -208
-181 -224 -154 -8 13 -53 7 -136 -19 -64 -20 -83 -32 -143 -89 -37 -36 -80
-73 -95 -81 -15 -8 -50 -40 -77 -70 -28 -30 -57 -61 -65 -68 -18 -16 -178
-122 -184 -122 -2 0 -41 -22 -85 -50 -44 -27 -85 -50 -89 -50 -5 0 -20 -8 -33
-18 -38 -28 -240 -120 -336 -153 -100 -33 -93 -32 -93 -18 0 5 4 8 9 5 5 -4
11 -3 13 1 4 11 188 128 271 173 15 8 82 43 149 78 165 85 408 242 408 262 0
24 -123 -37 -335 -167 -77 -47 -174 -106 -215 -131 -95 -57 -324 -167 -505
-242 -185 -76 -464 -168 -730 -240 -68 -19 -160 -49 -199 -65 -35 -15 13 44
83 101 136 113 275 166 552 214 641 109 923 268 1704 960 188 167 275 232 378
286 45 24 85 44 88 44 4 0 10 -12 13 -26z m1297 -222 c62 -58 146 -168 182
-238 17 -33 58 -186 52 -192 -2 -2 -12 -1 -22 2 -14 5 -21 23 -30 76 -21 135
-109 256 -228 315 -33 17 -61 30 -62 30 -1 0 -5 24 -11 52 l-9 52 30 -17 c17
-9 61 -45 98 -80z m-1816 -81 c-63 -59 -248 -212 -272 -224 -25 -13 -157 -57
-170 -57 -3 0 11 18 31 41 41 45 45 82 11 87 -12 2 -68 -13 -125 -33 -58 -19
-112 -37 -120 -40 -44 -12 -185 -67 -208 -80 -39 -22 -174 -63 -246 -75 -33
-6 -191 -22 -351 -35 -251 -21 -416 -43 -530 -71 -54 -13 -22 3 90 43 171 63
461 141 449 122 -3 -5 -11 -9 -17 -9 -21 -1 -100 -40 -94 -47 4 -3 13 -1 21 6
8 6 25 14 37 17 39 8 54 12 57 14 1 2 6 3 11 4 5 0 13 4 17 9 4 4 16 7 26 7
10 0 37 9 60 20 56 27 185 52 513 100 154 22 323 50 376 60 112 23 307 88 388
130 67 35 72 36 46 11z m1845 -302 c30 -58 60 -160 60 -200 0 -15 -17 10 -44
66 -23 50 -57 106 -74 126 -23 27 -32 49 -37 90 l-6 54 36 -40 c20 -22 50 -65
65 -96z m-1209 69 c0 -7 2 -20 3 -28 2 -8 6 -43 10 -76 l7 -62 -66 -88 c-103
-138 -113 -150 -122 -138 -4 6 -20 14 -35 18 -37 9 -64 65 -48 98 35 66 220
288 241 288 5 0 9 -6 10 -12z m734 -210 c-38 -128 -107 -304 -157 -401 -50
-95 -62 -143 -19 -77 15 25 50 78 77 119 86 130 132 204 171 269 20 34 40 62
44 62 3 0 28 -9 54 -21 l47 -21 -23 -26 c-13 -15 -59 -64 -103 -109 -44 -45
-77 -85 -74 -89 4 -3 24 -8 46 -11 34 -5 38 -8 34 -28 -5 -29 23 -40 62 -25
35 13 33 14 32 -12 -1 -31 31 -35 87 -10 l44 20 6 -107 c6 -109 24 -214 51
-288 13 -36 13 -48 2 -73 -11 -27 -14 -29 -26 -16 -17 22 -103 46 -161 46 -62
0 -71 -14 -12 -18 37 -2 167 -43 180 -56 2 -2 -13 -38 -33 -79 -28 -56 -41
-73 -50 -66 -9 7 -4 17 18 40 38 38 28 52 -11 15 -25 -24 -31 -26 -53 -15 -25
11 -25 12 -7 30 20 20 25 39 11 39 -5 0 -18 -11 -30 -25 -12 -13 -34 -27 -49
-31 -67 -14 -94 -27 -134 -63 l-43 -38 40 -41 c45 -45 104 -66 165 -60 l38 3
-36 -65 c-19 -36 -50 -99 -68 -142 -38 -90 -109 -186 -171 -231 -113 -81 -227
-172 -318 -251 -125 -111 -132 -115 -186 -115 -81 0 -128 29 -273 169 -122
116 -241 297 -340 515 l-58 129 28 20 c87 61 167 175 280 400 112 223 170 285
348 370 141 67 220 116 330 201 79 62 208 190 241 240 9 14 19 24 21 21 3 -3
-7 -47 -22 -98z m443 33 c40 -73 41 -91 5 -91 -65 0 -103 -21 -190 -104 -101
-95 -158 -136 -190 -136 -13 0 -23 3 -23 6 0 3 51 60 113 128 61 67 138 152
170 189 32 37 64 67 70 67 7 0 27 -26 45 -59z m-1150 -101 c1 -27 -3 -50 -7
-50 -5 0 -12 -11 -15 -25 -4 -14 -11 -23 -16 -20 -6 3 -10 2 -10 -2 0 -5 -16
-9 -35 -10 -19 0 -35 2 -35 4 0 11 107 153 115 153 2 0 3 -22 3 -50z m1206
-25 c9 -36 2 -43 -50 -51 -39 -5 -60 -19 -129 -81 -46 -40 -86 -80 -88 -88
-10 -23 -127 -48 -127 -26 0 4 59 61 131 126 105 95 141 121 178 131 68 18 78
17 85 -11z m19 -62 c3 -5 8 -22 11 -38 7 -31 6 -31 -139 -109 -183 -98 -213
-97 -105 5 102 95 130 117 176 133 47 17 52 18 57 9z m-1116 -147 c4 -3 12 -1
18 4 9 7 16 6 24 -4 10 -12 4 -19 -35 -42 -26 -15 -75 -38 -110 -50 l-63 -23
11 27 c7 15 17 32 23 37 6 6 14 18 18 28 3 9 15 17 26 17 11 0 22 4 25 9 6 9
54 7 63 -3z m-688 -72 c16 -21 21 -41 20 -88 0 -61 0 -61 -17 -36 -42 62 -100
96 -124 72 -8 -8 -5 -9 8 -6 24 6 69 -27 89 -65 8 -16 22 -59 31 -97 10 -38
22 -72 27 -76 12 -7 -58 -238 -72 -238 -5 0 -26 19 -48 43 -59 64 -78 129 -78
262 0 174 35 255 109 255 25 0 40 -7 55 -26z m1833 -35 c53 -14 55 -37 22
-181 -31 -137 -37 -250 -15 -312 7 -22 32 -59 54 -83 22 -24 38 -45 36 -48 -9
-8 -75 31 -109 65 -19 19 -50 64 -69 99 l-34 64 33 104 c27 86 33 121 34 203
0 55 3 100 6 100 3 0 22 -5 42 -11z m-1327 -59 c-40 -41 -54 -46 -36 -12 16
31 41 52 59 52 11 0 4 -12 -23 -40z m1452 -46 c15 -59 15 -132 0 -283 l-12
-115 -17 72 c-29 119 -41 241 -34 325 8 77 8 78 29 64 12 -8 27 -34 34 -63z
m813 -220 c0 -8 -4 -12 -10 -9 -5 3 -10 10 -10 16 0 5 5 9 10 9 6 0 10 -7 10
-16z m100 -138 c66 -153 65 -163 -32 -300 -91 -127 -164 -206 -192 -206 -17 0
-29 20 -67 108 l-45 107 26 16 c39 25 100 98 153 186 53 88 64 117 73 187 8
66 19 53 84 -98z m-1082 -107 c23 -25 42 -51 42 -56 0 -6 -57 -71 -126 -144
-152 -163 -192 -221 -279 -412 -37 -81 -70 -146 -72 -143 -3 3 4 33 15 68 11
35 28 90 37 123 12 44 48 106 134 235 65 96 125 198 135 225 9 28 20 86 23
130 l6 79 21 -29 c12 -16 40 -50 64 -76z m-2306 58 c9 -14 6 -18 -125 -227
-94 -151 -163 -238 -189 -240 -3 0 -8 7 -10 15 -2 12 -14 8 -56 -19 -29 -20
-49 -30 -45 -23 5 7 45 68 90 136 46 68 105 167 132 220 46 89 81 130 131 153
19 9 63 0 72 -15z m79 -165 c10 -14 19 -35 19 -48 0 -12 6 -24 12 -26 9 -3 1
-43 -30 -139 -23 -74 -52 -176 -64 -226 -20 -86 -38 -120 -38 -74 0 11 -8 27
-17 36 -13 13 -16 35 -16 100 1 46 4 91 7 101 5 17 0 19 -52 17 -31 -1 -68 -3
-82 -5 -15 -2 -24 2 -23 9 3 12 181 307 216 357 l21 30 14 -54 c7 -29 22 -64
33 -78z m-285 81 c-8 -16 -29 -41 -46 -58 -92 -86 -301 -358 -350 -455 -16
-30 -44 -70 -64 -89 l-35 -34 10 39 c20 73 96 219 156 300 112 150 289 321
336 324 4 0 1 -12 -7 -27z m2146 -35 c-9 -9 -15 -9 -24 0 -10 10 -10 15 2 22
20 12 38 -6 22 -22z m102 1 c30 -35 30 -39 14 -73 -12 -28 -60 -43 -97 -31
-20 6 -20 6 0 26 10 10 25 39 31 64 7 25 15 45 19 45 4 0 19 -14 33 -31z
m-136 -26 c-2 -14 3 -17 21 -15 24 2 24 2 6 -18 -23 -25 -42 -25 -79 -1 l-29
19 29 16 c38 20 56 20 52 -1z m-2164 -45 c-60 -102 -203 -295 -274 -369 -61
-64 -57 -53 23 61 92 131 290 374 251 308z m465 -91 c13 -15 19 -30 15 -40 -3
-10 -1 -17 5 -17 21 0 8 -119 -31 -290 -11 -47 -23 -137 -28 -200 -8 -111 -42
-286 -59 -303 -9 -9 -17 65 -30 259 -6 97 -12 129 -29 156 l-21 34 23 105 c26
115 81 285 98 306 15 19 32 16 57 -10z m430 -162 c18 -38 53 -103 79 -145 57
-92 233 -314 266 -335 23 -15 23 -17 10 -62 -19 -62 -18 -83 4 -84 9 0 4 -5
-13 -10 -49 -16 -213 -12 -300 6 -44 10 -90 18 -103 19 -22 1 -22 3 -15 61 4
33 7 207 8 387 0 314 1 325 16 280 9 -26 31 -78 48 -117z m-85 -827 c-1 -715
-4 -848 -18 -938 -30 -194 -79 -422 -97 -450 -15 -23 -2 74 37 267 39 195 40
214 13 158 l-19 -40 5 50 c19 203 27 462 22 700 -4 149 -9 284 -11 300 -22
146 -22 417 -1 574 12 96 48 211 64 211 4 0 6 -375 5 -832z m-1610 251 c-48
-52 -144 -114 -244 -161 -89 -42 -257 -149 -395 -253 -64 -49 -323 -291 -497
-466 -126 -128 -234 -255 -303 -359 -72 -109 -204 -290 -236 -325 -48 -52 -69
-78 -69 -87 0 -4 -6 -8 -14 -8 -8 0 -18 -9 -21 -20 -3 -11 -11 -20 -17 -20 -6
0 -9 -3 -5 -6 3 -4 -1 -13 -9 -21 -8 -8 -12 -19 -9 -24 4 -5 2 -9 -3 -9 -5 0
-19 -22 -30 -48 -12 -27 -36 -82 -55 -123 -19 -41 -40 -91 -48 -111 -7 -21
-16 -38 -20 -38 -4 0 -9 -8 -12 -17 -22 -69 -74 -211 -82 -223 -6 -8 -20 -37
-32 -65 -12 -27 -22 -45 -23 -39 0 17 88 270 114 329 13 27 42 95 66 150 63
150 182 384 267 527 191 321 443 595 760 828 56 41 100 76 99 78 -2 2 -37 -18
-77 -44 -41 -27 -128 -75 -194 -109 -289 -145 -568 -367 -737 -586 -34 -43
-63 -79 -65 -79 -7 0 36 69 95 152 107 152 265 303 445 427 42 30 77 55 77 56
0 1 -17 1 -37 0 -79 -5 -350 -150 -521 -279 -90 -69 -214 -188 -291 -281 -26
-32 -24 -27 9 21 131 194 363 380 726 583 116 65 552 272 789 374 77 34 248
116 380 183 132 68 242 123 244 123 3 1 -8 -13 -25 -30z m2132 -157 c19 -42
46 -91 60 -109 31 -41 25 -51 -51 -89 -58 -28 -215 -47 -215 -27 0 6 -9 64
-20 129 -12 66 -22 126 -23 134 -2 12 18 17 93 25 52 6 101 11 108 11 7 0 29
-33 48 -74z m2310 -142 c41 -33 83 -60 92 -60 18 0 -37 -32 -75 -44 -19 -6
-26 0 -53 54 -36 71 -52 110 -45 110 3 0 39 -27 81 -60z m-1438 1 c65 -22 167
-52 227 -66 108 -27 322 -98 337 -113 18 -18 58 -192 64 -275 l6 -92 -36 -33
c-20 -18 -36 -39 -36 -47 0 -8 -2 -15 -4 -15 -5 0 -361 154 -447 193 -72 33
-76 37 -71 63 3 19 1 25 -7 20 -7 -5 -11 5 -11 32 0 83 -99 225 -224 321 -31
24 -53 48 -49 53 11 19 133 -1 251 -41z m1373 -42 c130 -269 276 -465 439
-589 110 -84 115 -92 113 -159 -2 -75 -46 -278 -78 -362 -36 -92 -32 -108 32
-139 l52 -26 -71 -94 c-109 -145 -113 -158 -111 -328 2 -196 21 -324 70 -477
48 -150 156 -340 234 -409 20 -19 35 -37 31 -40 -10 -11 -84 -6 -146 10 -141
36 -305 132 -417 243 -71 71 -153 189 -165 237 -4 16 -11 32 -16 35 -16 11
-37 171 -48 367 -27 491 -53 593 -216 840 l-82 126 33 39 c32 37 75 140 75
178 0 30 15 29 86 -5 126 -61 206 -159 329 -406 84 -169 127 -227 194 -264 29
-15 54 -26 57 -24 2 3 -16 19 -41 37 -66 47 -106 102 -175 241 -140 281 -266
420 -405 450 l-30 6 -7 124 c-4 92 -13 149 -33 215 -15 50 -29 97 -32 106 -3
12 11 20 59 33 74 21 167 68 199 102 12 13 24 22 26 20 2 -2 22 -41 44 -87z
m-836 60 c66 -5 196 -27 289 -47 137 -31 172 -42 184 -60 28 -43 82 -312 68
-347 -7 -20 -120 -19 -285 3 l-125 17 -8 35 c-4 19 -20 77 -35 129 l-27 94
-51 22 c-28 13 -98 37 -155 55 -67 20 -114 41 -130 56 l-25 25 21 18 c24 19
61 19 279 0z m-1190 -27 c27 -17 126 -96 280 -224 100 -83 184 -130 264 -148
48 -11 126 -43 211 -85 194 -97 298 -142 442 -190 129 -44 240 -97 293 -140
l30 -25 -81 -79 c-89 -88 -141 -116 -324 -178 -80 -27 -127 -37 -198 -41 -105
-5 -202 12 -202 36 0 8 -15 42 -32 76 -36 67 -189 227 -248 260 -26 14 -8 -9
66 -85 88 -90 204 -244 204 -270 0 -5 -11 -16 -25 -25 -26 -17 -46 -17 -214 1
-108 12 -310 99 -465 199 -124 81 -311 280 -599 639 -108 134 -127 163 -127
192 0 19 2 35 4 35 2 0 28 -11 59 -25 30 -14 91 -31 135 -37 72 -11 91 -10
193 11 118 23 171 45 203 80 10 11 23 18 27 15 5 -3 16 2 25 10 20 21 42 20
79 -2z m-1310 -178 c13 -55 36 -130 50 -169 72 -189 149 -615 112 -615 -62 0
-144 -169 -249 -515 -51 -169 -80 -296 -60 -268 6 10 12 10 28 -2 17 -13 15
-14 -31 -15 -63 0 -113 13 -194 52 -105 51 -180 143 -273 333 -40 82 -52 120
-57 173 -4 37 -12 77 -19 89 -8 15 -9 28 -3 40 5 10 22 81 36 158 74 388 146
502 444 705 81 55 156 109 166 120 10 11 20 18 22 16 2 -2 14 -48 28 -102z
m706 -124 c151 -197 282 -351 400 -470 120 -122 264 -238 233 -188 -8 12 -7
12 75 -40 119 -76 235 -118 389 -141 107 -16 156 -14 202 10 34 18 46 20 66
10 14 -6 73 -11 132 -11 100 0 140 5 202 25 l25 7 -21 -23 c-30 -33 -44 -63
-44 -92 0 -33 -27 -39 -114 -26 -78 12 -96 11 -266 -25 -69 -15 -165 -29 -215
-33 l-90 -5 -24 62 c-44 116 -113 163 -240 164 -57 1 -77 -4 -141 -36 -41 -21
-99 -52 -129 -70 -52 -31 -56 -31 -108 -20 -30 6 -94 29 -141 51 -48 22 -107
45 -132 51 -79 21 -172 -9 -224 -71 -25 -29 -27 -30 -22 -8 68 288 92 543 77
801 -13 220 -13 235 -3 223 5 -6 56 -71 113 -145z m1228 43 c21 -42 43 -115
36 -121 -4 -5 -59 101 -69 136 -12 36 12 26 33 -15z m977 -579 c7 -1 23 -35
37 -76 23 -65 26 -69 26 -37 1 19 -10 58 -24 84 -58 115 20 33 86 -90 41 -77
42 -79 15 -57 -53 41 -97 27 -170 -54 -25 -28 -59 -57 -75 -64 -28 -11 -33
-10 -61 14 -33 27 -75 42 -153 51 l-47 6 72 37 c105 53 130 74 178 145 42 64
43 64 74 54 17 -5 36 -11 42 -13z m-2756 -319 c-11 -72 -62 -268 -89 -337
l-10 -28 -47 50 -47 50 53 152 c56 165 90 239 124 276 l21 24 3 -54 c2 -29 -2
-89 -8 -133z m-1713 126 c22 -28 10 -83 -39 -174 -27 -48 -48 -91 -48 -94 0
-3 -15 -29 -34 -57 -117 -179 -214 -423 -327 -828 -23 -82 -45 -148 -49 -148
-10 0 -5 39 31 265 33 206 32 198 19 190 -6 -4 -7 -11 -4 -17 4 -7 2 -8 -5 -4
-6 4 -18 0 -27 -8 -18 -18 -44 -21 -44 -5 0 20 -29 -19 -61 -81 -34 -66 -46
-73 -31 -16 12 42 2 53 -26 28 -28 -25 -68 -147 -98 -302 -24 -122 -26 -151
-22 -293 6 -167 2 -176 -37 -84 -35 84 -38 376 -6 534 7 39 7 41 -9 33 -17 -9
-17 -7 -5 38 7 26 20 64 29 85 9 20 14 37 11 37 -4 0 1 10 9 22 21 30 20 38
-4 33 -11 -2 -20 -2 -20 1 0 11 87 193 129 269 101 185 170 275 351 455 85 85
94 91 184 128 55 22 113 19 133 -7z m4602 -7 l21 -27 -23 -21 c-16 -15 -28
-43 -36 -85 -9 -48 -21 -72 -48 -102 -77 -85 -124 -89 -206 -19 -68 58 -93 62
-139 21 l-33 -29 -6 -144 c-8 -202 -42 -286 -159 -391 -83 -75 -160 -83 -297
-31 -78 29 -98 30 -158 3 -38 -17 -70 -22 -154 -23 -130 -1 -196 17 -274 75
-70 52 -111 109 -136 190 -11 35 -30 98 -43 139 -38 123 -90 143 -249 94 -118
-36 -164 -30 -278 36 -117 68 -171 84 -234 70 -26 -5 -61 -17 -76 -25 l-29
-14 9 39 c10 44 66 107 120 136 61 32 140 25 244 -23 108 -50 154 -63 220 -63
56 0 140 36 213 92 38 29 52 33 117 36 135 7 206 -53 234 -199 12 -57 11 -64
-23 -163 -74 -213 -29 -326 130 -326 83 0 227 50 218 75 -8 20 16 28 34 12 9
-8 40 -26 69 -41 65 -32 139 -35 197 -6 68 33 132 129 144 217 9 61 -3 183
-23 225 -12 26 -14 28 -10 8 13 -64 17 -218 6 -255 -15 -56 -62 -127 -107
-161 -33 -25 -46 -29 -104 -29 -50 0 -73 5 -95 20 -30 22 -106 65 -112 65 -2
0 -9 -13 -14 -29 -12 -35 -57 -56 -156 -72 -82 -13 -135 1 -167 44 -31 42 -28
134 8 212 16 35 31 87 35 125 l6 65 36 -3 c67 -6 225 17 324 48 l98 30 96 -15
c94 -14 140 -16 142 -5 0 3 1 21 3 40 6 81 71 131 180 138 86 5 114 -7 191
-78 86 -83 129 -73 144 32 8 59 25 92 56 107 37 18 72 13 94 -15z m-178 -137
c-12 -32 -30 -34 -62 -8 l-23 18 30 16 c17 9 37 23 45 33 13 16 14 16 17 -7 2
-14 -2 -37 -7 -52z m126 -147 c2 -24 -15 -36 -29 -22 -8 8 -7 16 2 27 17 20
25 19 27 -5z m-3548 -237 c21 -32 54 -72 72 -89 85 -77 212 -133 311 -137 32
-1 58 -4 58 -7 0 -3 -30 -66 -66 -140 -37 -74 -87 -184 -111 -245 -44 -107
-66 -145 -85 -145 -5 0 -7 8 -5 18 15 51 18 94 7 90 -10 -3 -53 -92 -74 -151
-9 -28 -105 77 -106 116 0 15 -10 47 -22 70 -21 38 -23 56 -24 192 0 191 1
182 -26 159 -12 -10 -18 -13 -14 -6 4 7 2 12 -5 12 -8 0 -10 29 -7 103 3 79 9
115 28 160 13 31 25 57 26 57 2 0 21 -26 43 -57z m1225 -240 c144 -51 207
-206 156 -384 -24 -83 -107 -161 -198 -185 -40 -10 -51 -9 -75 5 l-28 16 39 6
c22 3 57 16 77 30 44 29 115 143 126 202 16 89 -29 168 -121 211 -60 28 -188
29 -240 2 -47 -24 -90 -66 -90 -87 0 -39 -24 -38 -74 6 l-49 42 42 45 c43 47
127 92 203 108 60 13 171 4 232 -17z m-2519 -183 c-19 -74 -46 -196 -60 -270
-33 -174 -45 -223 -60 -235 -6 -5 -17 -23 -23 -40 -11 -27 -11 -24 -8 30 4 60
7 75 27 170 37 171 72 299 97 360 39 92 55 126 58 122 2 -1 -13 -63 -31 -137z
m925 -129 c164 -64 313 -156 408 -254 l43 -44 -56 -89 c-120 -190 -297 -589
-379 -854 -85 -276 -124 -474 -133 -668 l-6 -133 -26 31 c-18 22 -55 41 -128
69 -140 52 -237 115 -315 204 -85 97 -89 100 -197 142 -147 56 -264 71 -336
41 -35 -15 -39 -21 -98 -158 -14 -31 -37 -64 -52 -74 -33 -21 -138 -40 -143
-25 -2 6 -14 8 -27 5 -44 -11 -130 42 -247 152 -132 124 -221 175 -305 176
-29 0 -58 -3 -65 -7 -8 -5 -7 -2 2 8 8 8 94 60 190 115 543 309 1108 719 1463
1062 119 114 248 260 283 318 11 19 22 28 28 23 6 -4 49 -22 96 -40z m887 -28
c-3 -10 -5 -4 -5 12 0 17 2 24 5 18 2 -7 2 -21 0 -30z m2637 -85 c-22 -82 -21
-164 3 -197 l21 -27 -34 -85 c-19 -46 -54 -124 -78 -174 l-44 -89 33 36 33 36
-4 -37 c-3 -20 -7 -44 -9 -55 -2 -10 1 -43 7 -73 11 -53 10 -54 -22 -95 -70
-86 -125 -129 -229 -176 l-76 -34 52 6 c66 6 142 45 204 103 27 25 49 43 49
40 0 -18 -70 -132 -118 -192 -127 -158 -379 -388 -390 -355 -11 32 -96 109
-144 130 -49 21 -53 21 -103 5 -61 -19 -127 -71 -145 -115 -14 -34 -21 -35
-108 -15 -134 32 -313 145 -457 288 -158 158 -236 277 -294 453 -40 118 -39
142 3 201 50 71 52 85 18 148 -29 53 -29 55 -9 50 110 -22 425 -22 622 0 181
20 415 58 585 95 174 38 577 148 610 166 38 20 39 18 24 -38z m-2688 -15 c-7
-7 -26 7 -26 19 0 6 6 6 15 -2 9 -7 13 -15 11 -17z m728 -180 c68 -18 68 -18
92 -72 13 -29 24 -61 24 -70 0 -9 -18 -38 -40 -66 -22 -27 -47 -60 -55 -71
-23 -31 -30 -115 -15 -183 12 -60 12 -60 -18 -99 -17 -21 -65 -69 -106 -106
l-76 -68 -76 16 c-103 21 -167 21 -186 -1 -8 -10 -23 -52 -33 -93 -41 -171
-53 -198 -121 -271 -35 -37 -64 -72 -64 -77 0 -27 -210 -194 -444 -354 -55
-38 -59 -39 -53 -17 3 13 10 51 17 84 22 110 71 252 111 321 61 104 133 187
379 439 296 302 394 434 486 656 l36 86 36 -18 c21 -10 68 -26 106 -36z m-627
-580 c-14 -26 -40 -61 -57 -78 -28 -26 -25 -18 21 52 30 45 55 80 57 78 2 -2
-8 -25 -21 -52z m764 -163 c72 -103 226 -253 337 -328 102 -70 253 -145 377
-188 44 -15 82 -32 83 -36 2 -5 25 -31 50 -59 44 -49 106 -89 136 -89 8 0 17
-4 21 -10 5 -9 -211 -156 -423 -287 l-102 -63 -60 30 c-36 18 -60 37 -60 47 0
8 18 36 41 60 l41 45 -38 30 c-22 17 -75 69 -119 116 -44 47 -154 163 -245
256 -196 203 -390 415 -390 427 0 5 15 12 33 17 17 4 32 13 32 19 0 5 40 53
90 104 l90 94 26 -55 c15 -30 50 -89 80 -130z m184 -100 c83 -91 183 -180 260
-231 59 -39 78 -59 57 -59 -5 0 -58 32 -118 72 -74 48 -143 105 -214 177 -112
112 -137 148 -125 178 6 15 12 12 43 -27 21 -24 64 -74 97 -110z m-632 105
c41 -5 47 -9 47 -30 0 -31 44 -80 354 -395 144 -146 287 -292 317 -325 31 -33
76 -76 100 -97 l44 -36 -44 -45 c-58 -60 -53 -81 32 -124 34 -18 72 -33 84
-33 21 0 307 186 447 292 43 32 80 58 81 56 1 -2 48 -88 105 -193 110 -205
111 -207 137 -212 73 -15 90 -14 106 2 24 23 22 86 -3 118 -24 31 -25 37 -3
37 31 0 164 74 227 126 83 69 224 225 237 263 8 24 8 35 -1 46 -16 19 -9 28
14 19 13 -5 16 -21 16 -80 l0 -73 -76 -85 c-42 -47 -120 -124 -174 -171 -108
-93 -141 -133 -146 -175 -7 -62 -71 -131 -147 -159 -49 -19 -73 -13 -106 25
-37 42 -108 180 -145 282 -36 102 -53 132 -75 132 -19 0 -101 -59 -270 -192
-99 -79 -181 -125 -240 -134 -40 -6 -45 -4 -82 32 -22 22 -58 62 -80 90 -36
47 -38 54 -28 77 10 21 9 30 -2 45 -15 20 -144 168 -309 351 -52 58 -182 206
-287 328 -106 122 -197 224 -203 228 -17 10 -11 27 8 22 9 -3 38 -8 65 -12z
m2163 -89 c-33 -62 -115 -154 -187 -210 -77 -60 -84 -64 -93 -41 -3 9 25 47
79 105 46 49 96 106 112 126 58 77 128 92 89 20z m49 -217 c15 -32 17 -54 10
-183 l-7 -147 -58 -67 c-107 -123 -239 -225 -328 -252 -65 -20 -73 -36 -42
-78 24 -33 24 -79 -1 -95 -21 -13 -59 -3 -87 25 -19 19 -214 337 -229 374 -2
6 16 17 42 24 56 16 125 75 150 129 14 31 31 48 74 72 170 96 379 273 426 362
l20 38 6 -83 c4 -47 14 -99 24 -119z m-3423 59 c-7 -7 -12 -8 -12 -2 0 14 12
26 19 19 2 -3 -1 -11 -7 -17z m984 -100 c4 -7 3 -8 -4 -4 -7 4 -12 2 -12 -5 0
-20 83 -93 132 -117 26 -12 49 -26 53 -32 4 -6 -5 -43 -18 -83 -21 -61 -24
-82 -18 -133 9 -77 28 -106 86 -134 42 -21 53 -21 148 -14 136 12 139 11 220
-37 91 -54 234 -197 355 -354 271 -351 403 -492 480 -516 57 -17 131 9 218 75
38 29 132 94 209 146 77 52 172 117 210 145 39 28 92 64 118 79 46 27 52 28
135 22 55 -4 82 -3 73 3 -11 7 -10 12 8 22 12 8 42 46 66 84 25 39 60 85 80
102 l35 31 6 -23 c6 -23 -16 -78 -36 -90 -6 -4 -19 -24 -30 -45 -29 -56 -87
-108 -134 -121 -188 -50 -184 -48 -526 -289 -179 -127 -262 -179 -335 -211
-42 -18 -52 -19 -96 -9 -42 10 -65 26 -139 97 -131 124 -247 266 -459 564 -25
34 -72 82 -105 107 -61 45 -208 122 -234 122 -7 0 -11 4 -7 9 3 5 -25 12 -62
15 -160 15 -247 28 -273 41 -38 20 -67 62 -79 116 -17 72 -13 102 24 175 19
38 35 75 35 81 0 19 -48 40 -109 48 -41 6 -62 15 -84 37 l-30 29 39 40 c41 42
49 45 60 27z m1848 -63 c10 -16 16 -37 13 -51 -2 -13 0 -24 4 -24 12 0 11 -37
-1 -45 -6 -4 -8 -11 -4 -16 9 -15 -36 -79 -56 -79 -10 0 -37 16 -60 35 -23 19
-46 35 -51 35 -5 0 -9 32 -9 70 0 69 0 70 -27 71 -27 2 -27 2 -3 6 14 2 31 12
38 21 7 9 25 21 40 28 22 9 33 8 62 -7 19 -10 43 -30 54 -44z m-2534 -70 c-6
-52 -13 -157 -15 -235 -1 -78 -5 -143 -8 -146 -7 -7 -27 112 -34 206 -4 60 -2
87 9 112 9 18 24 66 34 106 24 93 29 76 14 -43z m55 32 c0 -15 7 -23 23 -25
18 -3 22 -8 17 -20 -4 -9 -16 -64 -27 -122 -47 -254 -75 -306 -65 -121 7 123
36 325 46 315 3 -3 6 -16 6 -27z m-2298 -32 c37 -17 91 -60 176 -142 93 -90
137 -125 180 -143 31 -14 57 -28 57 -31 0 -4 -79 -64 -176 -133 l-176 -127
-35 27 c-42 32 -111 135 -146 219 -45 106 -86 306 -69 331 27 40 100 40 189
-1z m1055 -71 c54 -17 95 -39 137 -72 33 -26 59 -50 58 -54 -1 -3 -85 -70
-187 -149 -102 -78 -259 -201 -350 -274 -91 -72 -223 -174 -295 -225 -147
-105 -384 -285 -492 -372 -39 -32 -74 -58 -77 -58 -15 0 -66 284 -66 368 0
118 -5 111 177 234 142 95 328 230 452 328 28 22 47 28 84 29 65 0 127 18 155
44 26 24 62 91 81 148 22 69 69 91 176 83 38 -3 104 -17 147 -30z m2356 -11
c21 -57 22 -66 12 -104 -13 -48 -67 -112 -88 -104 -8 3 -21 0 -29 -6 -11 -10
-12 -8 -4 12 5 13 6 42 2 64 -5 31 -2 49 15 82 13 22 20 44 17 47 -4 3 1 6 9
6 9 0 21 7 28 15 18 21 26 19 38 -12z m-853 -146 c-5 -46 -35 -85 -189 -248
-124 -132 -188 -189 -324 -293 -93 -71 -210 -152 -258 -179 -154 -85 -314
-166 -314 -158 0 16 248 267 360 365 135 119 373 306 389 306 6 0 11 -6 11
-12 0 -7 8 2 16 19 11 21 53 59 118 105 55 39 119 84 140 100 44 31 55 30 51
-5z m-1227 -38 c65 -71 170 -136 293 -180 85 -30 149 -75 149 -104 0 -35 -140
-115 -288 -165 -148 -49 -273 -71 -448 -77 -125 -4 -180 -2 -245 10 -46 9
-108 19 -137 23 -29 3 -52 10 -50 14 2 5 57 50 123 101 188 145 498 394 519
418 11 11 21 21 24 21 3 0 30 -27 60 -61z m2162 -279 c125 -63 212 -134 270
-221 96 -147 343 -451 437 -540 55 -52 81 -68 130 -83 70 -21 90 -17 208 42
109 54 359 226 506 349 43 34 83 63 91 63 7 0 34 -28 58 -62 90 -123 170 -173
545 -337 127 -56 291 -135 365 -175 74 -41 164 -88 200 -105 l65 -32 -41 38
c-23 21 -91 67 -152 102 -102 58 -123 75 -251 210 -197 206 -257 282 -280 353
-11 32 -10 43 9 84 l20 47 31 -29 c92 -86 589 -670 654 -768 20 -31 41 -53 46
-50 5 3 37 -17 72 -44 283 -223 453 -297 850 -368 130 -24 157 -32 157 -46 0
-25 -73 -161 -117 -220 -44 -58 -137 -131 -209 -164 -72 -34 -130 -40 -189
-19 -28 9 -72 19 -100 22 -69 7 -87 -14 -90 -101 -3 -82 -28 -130 -70 -134
-27 -3 -35 4 -80 74 -48 74 -122 146 -165 159 -11 4 -18 10 -15 15 7 12 -71
28 -203 42 -209 22 -340 -16 -639 -185 -219 -124 -256 -142 -361 -177 -169
-56 -285 -50 -406 22 -157 93 -188 105 -273 103 -92 -2 -153 -23 -153 -54 0
-13 20 -34 59 -60 101 -69 168 -165 178 -255 7 -54 -6 -79 -54 -102 -35 -17
-63 -19 -333 -18 -328 1 -343 3 -448 71 -84 53 -144 115 -287 293 -182 227
-250 287 -347 305 l-36 7 11 36 c5 21 9 47 9 60 -5 77 236 667 414 1010 46 90
80 161 74 157 -17 -11 -127 -203 -192 -335 -121 -248 -270 -608 -313 -755 -9
-33 -21 -103 -26 -155 -12 -124 -3 -155 112 -376 86 -167 96 -194 83 -228 -15
-39 -51 -13 -269 188 -192 178 -284 249 -390 302 -188 93 -371 97 -560 10 -73
-33 -139 -80 -193 -135 l-44 -46 7 50 c12 90 65 293 100 379 85 212 259 507
500 851 99 140 129 175 217 251 230 198 520 500 643 667 56 77 47 76 165 17z
m-264 -27 c21 -27 21 -29 6 -57 -45 -78 -612 -620 -630 -601 -3 2 -17 -2 -31
-9 -24 -13 -59 -27 -71 -28 -3 0 -14 -5 -25 -11 -11 -6 -24 -11 -28 -12 -5 0
-14 -8 -21 -17 -7 -10 -20 -18 -29 -18 -8 0 -17 -3 -19 -8 -16 -37 -578 -322
-636 -322 -35 0 1 67 101 190 71 88 540 489 698 598 70 48 160 109 199 136 39
26 144 82 233 123 181 83 212 87 253 36z m2067 -5 c20 -27 27 -81 13 -95 -4
-4 -15 -2 -26 5 -17 10 -20 7 -30 -24 -16 -47 -24 -36 -11 14 12 43 6 72 -13
72 -13 0 -18 24 -10 48 7 22 55 9 77 -20z m-707 -141 c11 -30 18 -82 19 -122
0 -90 -31 -158 -108 -240 l-56 -60 0 90 c0 50 6 126 14 170 8 44 15 81 15 83
0 2 -5 0 -11 -4 -7 -4 0 10 14 32 20 28 23 40 14 46 -8 5 -7 8 6 8 10 0 21 8
24 18 8 20 35 42 45 36 3 -2 15 -28 24 -57z m-4823 -256 c4 -86 14 -155 38
-250 17 -72 29 -134 26 -138 -17 -16 -38 28 -61 125 -39 167 -59 356 -39 375
23 24 30 1 36 -112z m157 -393 c-1 -115 -6 -114 -50 1 l-21 54 28 23 c15 13
31 23 36 24 4 0 7 -46 7 -102z m-660 -26 c0 -4 -9 -35 -19 -68 -11 -32 -32
-103 -46 -156 -30 -107 -30 -108 23 -233 46 -111 67 -256 43 -294 -17 -26 -37
4 -120 175 l-80 164 -7 175 -7 175 29 0 c16 0 61 15 99 34 75 37 85 40 85 28z
m797 -124 c55 -38 91 -144 64 -186 -7 -11 -9 -11 -14 2 -5 12 -18 15 -57 12
-32 -2 -50 0 -50 8 0 6 -5 28 -11 48 l-10 38 -37 -16 c-40 -16 -37 -13 21 30
31 22 36 31 26 42 -8 10 -8 14 0 14 6 0 11 7 11 15 0 21 18 19 57 -7z m6333
-976 c30 -15 46 -41 137 -219 195 -381 396 -822 538 -1178 124 -308 172 -521
163 -719 l-4 -96 -39 -41 c-55 -57 -143 -118 -255 -177 -71 -38 -164 -72 -370
-136 -151 -47 -336 -106 -410 -131 -281 -97 -275 -95 -329 -85 -99 19 -338
159 -450 264 -97 92 -278 319 -300 378 -20 53 15 72 310 173 279 95 393 160
419 240 10 29 8 38 -19 83 -58 98 -196 299 -303 440 -84 111 -576 727 -737
923 l-24 30 24 -9 c13 -6 65 -31 116 -58 84 -44 99 -48 178 -52 155 -8 282 37
581 206 296 167 388 195 609 186 91 -4 140 -11 165 -22z m874 6 c-42 -47 -196
-168 -281 -221 -146 -90 -334 -178 -341 -159 -4 12 -141 263 -164 300 -11 17
-16 32 -11 32 14 0 107 -100 142 -153 18 -26 43 -54 56 -63 21 -13 27 -13 59
0 46 19 75 79 76 153 0 56 20 87 49 79 9 -3 55 -13 102 -22 74 -15 94 -16 147
-5 33 8 87 28 119 47 70 39 71 40 47 12z m-4026 -47 c51 -26 129 -111 256
-279 60 -78 138 -173 175 -211 l66 -69 -40 6 c-49 6 -51 7 -34 29 34 46 -77
-67 -195 -197 -201 -222 -576 -677 -895 -1088 -57 -74 -110 -136 -117 -139 -8
-3 -12 -8 -9 -12 2 -4 -8 -23 -24 -42 -15 -19 -130 -169 -256 -334 -125 -164
-259 -335 -297 -380 -81 -92 -134 -167 -172 -243 -15 -29 -48 -75 -75 -102
-40 -42 -54 -50 -87 -52 -115 -4 -122 -7 -210 -84 -103 -89 -393 -281 -403
-266 -4 7 -45 16 -92 21 -47 5 -115 20 -154 35 -75 29 -218 104 -256 135 l-24
19 43 84 c23 45 82 139 131 208 138 193 312 446 370 540 29 47 99 157 155 245
121 191 161 257 211 350 21 39 54 95 73 125 232 365 747 1317 874 1617 l27 61
55 7 c121 15 309 -49 446 -154 36 -27 122 -100 191 -163 152 -135 278 -241
308 -257 18 -10 25 -8 46 13 46 46 34 88 -94 321 -81 148 -108 223 -91 255 14
25 49 26 98 1z m-988 -36 c0 -6 -180 -367 -186 -374 -10 -11 -184 144 -184
165 0 21 100 101 173 140 93 49 197 85 197 69z m2390 -148 c35 -12 59 -39 206
-229 l74 -97 -60 -35 c-69 -40 -161 -70 -189 -61 -18 5 -18 8 -4 36 12 24 13
39 4 80 -6 27 -17 63 -25 78 -29 56 -98 132 -151 168 -30 19 -55 39 -55 43 0
25 141 37 200 17z m510 -1507 c21 -51 6 -112 -63 -258 -36 -75 -68 -145 -71
-155 -3 -9 -37 -66 -75 -125 -79 -123 -117 -194 -162 -307 -56 -137 -191 -250
-350 -291 -88 -23 -233 -23 -278 0 -18 10 -30 12 -26 6 4 -7 30 -22 57 -34
l49 -22 -79 -46 c-104 -62 -186 -94 -442 -172 -375 -113 -449 -151 -596 -310
-82 -88 -114 -100 -114 -40 0 73 76 167 224 278 61 45 181 135 266 198 243
181 692 573 1000 874 216 210 408 353 556 413 70 28 89 27 104 -9z m-3500
-1585 c0 -14 -424 -504 -579 -669 -62 -66 -175 -193 -250 -280 -75 -88 -146
-171 -159 -185 l-23 -26 6 50 c10 86 73 198 180 318 151 169 526 542 680 675
140 122 145 126 145 117z m-5249 -162 c-12 -20 -14 -14 -5 12 4 9 9 14 11 11
3 -2 0 -13 -6 -23z m3354 15 c48 -22 66 -87 95 -340 14 -129 67 -204 170 -244
56 -22 58 -23 40 -35 -12 -9 -11 -9 5 -4 47 17 61 16 84 -9 45 -48 43 -135 -5
-245 -47 -107 -134 -208 -355 -416 -128 -121 -160 -182 -158 -305 3 -171 -51
-258 -279 -445 -89 -73 -185 -189 -223 -270 -48 -103 -57 -231 -17 -257 8 -4
-6 -8 -34 -8 -38 0 -50 5 -67 26 -62 79 -44 149 141 554 92 201 229 536 297
725 l47 130 -9 135 c-11 151 1 318 33 497 26 139 110 484 122 500 9 11 33 19
70 22 9 0 29 -4 43 -11z m-3374 -65 c-12 -20 -14 -14 -5 12 4 9 9 14 11 11 3
-2 0 -13 -6 -23z m4688 -503 c-18 -22 -35 -38 -37 -35 -5 5 57 75 65 75 2 0
-11 -18 -28 -40z m955 -28 c47 -51 99 -84 272 -173 88 -45 188 -102 223 -127
83 -58 204 -180 265 -265 45 -63 47 -68 44 -126 l-3 -60 -70 86 c-148 181
-279 286 -540 433 -206 116 -232 135 -239 178 -3 20 -6 57 -6 82 1 38 2 42 12
25 6 -11 25 -35 42 -53z m206 -579 c52 -33 160 -93 240 -134 131 -66 154 -82
231 -159 114 -113 144 -160 152 -233 l6 -58 -77 69 c-180 160 -296 240 -508
350 -76 40 -149 81 -161 91 -14 11 -30 47 -43 92 -28 102 -27 105 23 71 23
-17 85 -57 137 -89z m-3381 -1753 c208 -27 423 -130 617 -297 66 -58 111 -110
188 -218 8 -11 17 -44 21 -74 l7 -54 -142 129 c-188 171 -312 262 -445 329
-114 57 -244 95 -324 95 l-43 0 7 38 c5 30 21 62 29 62 1 0 39 -5 85 -10z
m-24 -478 c166 -44 272 -108 445 -268 121 -112 316 -272 413 -338 54 -37 57
-41 57 -82 l0 -42 -106 47 c-124 55 -190 102 -334 236 -58 54 -127 115 -154
137 -105 83 -276 167 -391 190 l-55 11 0 68 0 69 33 -6 c17 -3 59 -13 92 -22z
m889 -502 c4 -41 10 -84 13 -95 5 -18 3 -18 -20 4 -22 20 -25 31 -23 70 2 25
4 66 5 91 3 64 17 26 25 -70z m14 -249 c20 -12 22 -176 3 -176 -8 0 -16 11
-18 25 -2 14 -8 52 -13 85 -5 33 -10 63 -10 68 0 9 22 9 38 -2z"/>
<path d="M11380 17871 c0 -5 23 -11 51 -15 77 -10 177 -52 237 -99 120 -93
117 -92 53 -10 -40 50 -124 97 -212 118 -72 16 -129 19 -129 6z"/>
<path d="M11253 17740 l4 -54 -22 28 c-23 29 -23 29 -34 7 -12 -22 -9 -33 18
-64 9 -11 16 -40 17 -71 1 -29 9 -66 17 -82 46 -88 187 -153 272 -125 l30 9
-39 1 -38 1 30 34 c16 19 37 55 47 80 10 25 22 43 27 40 5 -3 22 -27 38 -52
33 -52 36 -50 18 12 -21 74 -112 152 -211 181 -45 13 -61 23 -73 46 -17 34
-39 29 -30 -7 12 -46 -24 -21 -58 41 l-17 30 4 -55z m67 -108 c0 -4 -5 -13
-10 -18 -6 -6 -16 -30 -23 -55 l-14 -44 -11 40 c-21 71 -17 85 23 85 19 0 35
-4 35 -8z m198 -71 c5 -30 -10 -45 -37 -36 -23 7 -28 34 -9 53 19 19 43 10 46
-17z m-146 -56 c16 -19 32 -25 60 -25 43 0 56 -16 38 -49 -14 -28 -52 -36 -86
-19 -36 17 -77 87 -62 105 15 19 25 16 50 -12z"/>
<path d="M11957 17333 c-75 -119 -102 -207 -94 -315 3 -43 1 -80 -4 -84 -5 -3
-37 -10 -71 -15 -35 -6 -70 -17 -78 -26 -13 -14 -13 -15 5 -8 11 4 48 11 83
15 89 12 95 18 87 105 -9 93 7 163 61 274 45 92 50 117 11 54z"/>
<path d="M11381 16784 c31 -32 73 -78 93 -100 28 -33 45 -42 79 -47 44 -6 113
5 129 21 14 14 -18 41 -42 35 -14 -4 -20 0 -20 11 0 9 -4 16 -9 16 -5 0 -11 7
-13 16 -2 11 -42 30 -113 56 -169 61 -169 61 -104 -8z m189 -114 l35 -19 -31
-1 c-18 0 -42 9 -55 20 -23 18 -23 19 -4 19 11 0 36 -8 55 -19z"/>
<path d="M10664 17632 c1 -62 7 -117 12 -122 11 -11 6 150 -7 200 -6 25 -8 2
-5 -78z"/>
<path d="M13540 17340 c0 -60 4 -110 8 -110 14 0 41 34 53 67 9 27 6 39 -21
92 -16 34 -32 61 -35 61 -3 0 -5 -49 -5 -110z m39 -10 c0 -14 -4 -32 -9 -40
-7 -11 -10 3 -9 45 0 43 3 54 9 40 5 -11 9 -31 9 -45z"/>
<path d="M13468 17342 c-45 -93 -33 -97 19 -6 l22 39 1 -101 c0 -87 -3 -103
-19 -118 -19 -17 -21 -16 -47 23 -34 51 -54 54 -23 4 36 -61 45 -69 64 -53 37
31 46 67 44 190 0 66 -4 120 -7 119 -4 0 -28 -44 -54 -97z"/>
<path d="M13355 17189 c-16 -11 -40 -24 -52 -29 -15 -6 -23 -18 -23 -32 0 -29
56 -148 70 -148 5 0 10 3 10 8 0 4 21 29 45 56 25 27 45 51 45 54 0 5 -60 112
-63 112 -1 0 -15 -9 -32 -21z m51 -45 l27 -45 -34 -37 c-19 -20 -37 -41 -41
-46 -7 -9 -58 88 -58 111 0 10 59 57 77 62 1 1 14 -20 29 -45z"/>
<path d="M13505 14938 c97 -188 131 -313 165 -608 31 -268 67 -417 125 -517
28 -47 44 -59 21 -15 -22 43 -73 210 -90 297 -8 44 -25 154 -36 245 -33 264
-88 453 -183 622 -59 106 -61 89 -2 -24z"/>
<path d="M11520 15085 c0 -2 10 -10 23 -16 20 -11 21 -11 8 4 -13 16 -31 23
-31 12z"/>
<path d="M8898 13472 c-141 -158 -324 -378 -448 -537 -145 -187 -360 -495
-346 -495 3 0 58 71 123 158 265 354 530 687 711 895 51 59 89 107 84 107 -5
0 -61 -58 -124 -128z"/>
<path d="M9207 13173 c-281 -395 -462 -666 -527 -788 -24 -44 -38 -75 -33 -70
6 6 88 126 183 268 94 142 261 389 371 547 207 301 273 400 265 400 -2 0 -119
-161 -259 -357z"/>
<path d="M10981 13153 c0 -10 213 -166 286 -211 132 -80 280 -133 409 -146 56
-6 55 -5 -31 18 -185 49 -342 127 -541 267 -110 78 -125 86 -123 72z"/>
<path d="M12935 11095 c19 -87 231 -372 506 -680 126 -141 359 -374 359 -359
0 5 -21 30 -46 54 -25 25 -126 135 -223 245 -320 360 -500 584 -567 707 -25
44 -33 54 -29 33z"/>
<path d="M12386 10980 c13 -152 91 -490 160 -698 37 -109 129 -311 158 -347 9
-11 -6 27 -33 85 -92 195 -171 457 -247 820 -28 128 -42 181 -38 140z"/>
<path d="M11724 10650 c3 -173 11 -398 17 -499 13 -222 31 -329 24 -141 -26
683 -38 946 -42 950 -3 3 -3 -137 1 -310z"/>
<path d="M11206 10523 c-8 -94 -6 -662 3 -798 3 -55 6 119 6 387 0 269 0 488
-1 488 -1 0 -4 -34 -8 -77z"/>
<path d="M12664 18035 c49 -24 97 -52 107 -61 11 -9 19 -12 19 -6 0 17 -59 58
-123 87 -96 42 -98 27 -3 -20z"/>
</g>
</svg>
